<svg width="54" height="54" viewBox="0 0 54 54" fill="none" xmlns="http://www.w3.org/2000/svg">
<path d="M52.7392 23.4287V24.8573C52.7392 26.0408 51.7789 27.0001 50.5943 27.0001H49.8793L47.5455 43.3204C47.2436 45.4317 45.4337 47 43.2989 47H10.7015C8.56672 47 6.75677 45.4317 6.45478 43.3204L4.12112 27.0001H3.40614C2.22153 27.0001 1.26123 26.0408 1.26123 24.8573V23.4287C1.26123 22.2452 2.22153 21.2859 3.40614 21.2859H9.42451L18.9676 8.17694C19.8966 6.90088 21.6851 6.61865 22.9626 7.54677C24.24 8.47489 24.5224 10.2618 23.5934 11.5379L16.497 21.2859H37.5034L30.407 11.5378C29.478 10.2618 29.7605 8.4748 31.0379 7.54668C32.3151 6.61856 34.1039 6.9007 35.0329 8.17685L44.5759 21.2859H50.5943C51.7789 21.2859 52.7392 22.2452 52.7392 23.4287ZM29.1451 39.1429V29.143C29.1451 27.9595 28.1848 27.0001 27.0002 27.0001C25.8156 27.0001 24.8553 27.9595 24.8553 29.143V39.1429C24.8553 40.3264 25.8156 41.2858 27.0002 41.2858C28.1848 41.2858 29.1451 40.3264 29.1451 39.1429ZM39.1547 39.1429V29.143C39.1547 27.9595 38.1944 27.0001 37.0098 27.0001C35.8252 27.0001 34.8649 27.9595 34.8649 29.143V39.1429C34.8649 40.3264 35.8252 41.2858 37.0098 41.2858C38.1944 41.2858 39.1547 40.3264 39.1547 39.1429ZM19.1355 39.1429V29.143C19.1355 27.9595 18.1752 27.0001 16.9906 27.0001C15.806 27.0001 14.8457 27.9595 14.8457 29.143V39.1429C14.8457 40.3264 15.806 41.2858 16.9906 41.2858C18.1752 41.2858 19.1355 40.3264 19.1355 39.1429Z" fill="white"/>
</svg>
