<svg width="25" height="24" viewBox="0 0 25 24" fill="none" xmlns="http://www.w3.org/2000/svg">
<g clip-path="url(#clip0)">
<path fill-rule="evenodd" clip-rule="evenodd" d="M22.609 3.211C22.316 2.916 21.839 2.916 21.548 3.211L10.367 14.34C10.074 14.637 9.59603 14.637 9.30503 14.34L4.40603 9.351C4.26103 9.203 4.07103 9.13 3.88003 9.129C3.68703 9.128 3.49103 9.201 3.34403 9.351L1.17903 11.297C1.03503 11.445 0.957031 11.63 0.957031 11.823C0.957031 12.017 1.03503 12.22 1.18003 12.367L6.12003 17.551C6.41203 17.847 6.89103 18.327 7.18203 18.621L9.30603 20.762C9.59803 21.055 10.075 21.055 10.368 20.762L24.734 6.422C25.027 6.128 25.027 5.645 24.734 5.351L22.609 3.211Z" fill="white"/>
</g>
<defs>
<clipPath id="clip0">
<rect width="24" height="24" fill="white" transform="translate(0.957031)"/>
</clipPath>
</defs>
</svg>
