<svg width="241" height="61" viewBox="0 0 241 61" fill="none" xmlns="http://www.w3.org/2000/svg">
<g clip-path="url(#clip0)">
<rect width="240" height="60" transform="translate(0.5 0.990967)" fill="#DD2525"/>
<path d="M15.5213 44.5699V24.191C15.5213 22.1965 15.8682 20.8379 16.5619 20.1152C17.2846 19.3926 18.7299 19.0312 20.8979 19.0312H37.3744C39.1955 19.1758 40.1783 19.9851 40.3229 21.4593C40.2361 20.8523 40.424 20.3031 40.8865 19.8117C41.3779 19.3203 42.274 19.0601 43.5748 19.0312H59.0975C61.3232 19.0312 62.783 19.3492 63.4768 19.9851C64.1994 20.6211 64.5607 22.023 64.5607 24.191V44.5699H58.9674V28.8738C58.9385 26.966 58.6494 25.7375 58.1002 25.1883C57.5799 24.6101 56.5971 24.2777 55.1518 24.191H46.6533C45.3236 24.2199 44.3408 24.5234 43.7049 25.1015C43.0979 25.6508 42.7654 26.9082 42.7076 28.8738V44.5699H37.3744V28.8738C37.2877 27.1394 36.9986 25.9543 36.5072 25.3183C36.0447 24.6535 34.9174 24.2777 33.1252 24.191H25.017C23.3404 24.2199 22.2275 24.4656 21.6783 24.9281C21.158 25.3617 20.8979 26.6769 20.8979 28.8738V44.5699H15.5213ZM74.36 26.359L74.2732 37.2422C74.3889 38.0226 74.5623 38.5719 74.7936 38.8898C75.0248 39.1789 75.6318 39.3234 76.6147 39.3234L109.698 39.4101C110.825 39.4679 111.533 39.3523 111.822 39.0633C112.112 38.7453 112.299 38.1094 112.386 37.1554L112.473 25.7086C112.473 25.0437 112.256 24.6246 111.822 24.4511C111.418 24.2488 110.522 24.1476 109.134 24.1476L76.4412 24.0609C75.4873 24.1476 74.9236 24.3644 74.7502 24.7113C74.5768 25.0293 74.4467 25.5785 74.36 26.359ZM68.8967 23.9308C68.9545 21.7918 69.3592 20.4765 70.1107 19.9851C70.8623 19.4648 72.2787 19.1758 74.36 19.1179L112.256 19.0746C114.164 19.0746 115.551 19.4215 116.419 20.1152C117.286 20.7801 117.763 22.0086 117.849 23.8008L117.936 39.1933C117.965 40.8988 117.618 42.2285 116.896 43.1824C116.202 44.1074 114.728 44.5699 112.473 44.5699L74.2299 44.6566C72.1486 44.6855 70.7467 44.3965 70.024 43.7894C69.3303 43.1535 68.9834 41.6215 68.9834 39.1933L68.8967 23.9308ZM122.315 18.9879H171.355V24.0176H149.502V44.5265H144.169V24.0176H122.315V18.9879ZM175.691 18.9879H181.067V29.0906H219.137V18.9879H224.73V44.5265H219.137V34.684H181.067V44.5265H175.691V18.9879Z" fill="white"/>
<path d="M15.5213 44.5699H15.1013V44.9899H15.5213V44.5699ZM16.5619 20.1152L16.2649 19.8182L16.2589 19.8243L16.5619 20.1152ZM37.3744 19.0312L37.4076 18.6125L37.3911 18.6112H37.3744V19.0312ZM40.3229 21.4593L39.9071 21.5187L40.7408 21.4184L40.3229 21.4593ZM40.8865 19.8117L40.5894 19.5146L40.5807 19.5238L40.8865 19.8117ZM43.5748 19.0312V18.6111L43.5655 18.6113L43.5748 19.0312ZM63.4768 19.9851L63.1929 20.2948L63.1993 20.3004L63.4768 19.9851ZM64.5607 44.5699V44.9899H64.9807V44.5699H64.5607ZM58.9674 44.5699H58.5474V44.9899H58.9674V44.5699ZM58.9674 28.8738L59.3874 28.8738L59.3873 28.8674L58.9674 28.8738ZM58.1002 25.1883L57.788 25.4692L57.7954 25.4774L57.8032 25.4852L58.1002 25.1883ZM55.1518 24.191L55.1769 23.7717L55.1643 23.771H55.1518V24.191ZM46.6533 24.191V23.7709L46.6442 23.7711L46.6533 24.191ZM43.7049 25.1015L43.9867 25.413L43.9874 25.4123L43.7049 25.1015ZM42.7076 28.8738L42.2876 28.8615V28.8738H42.7076ZM42.7076 44.5699V44.9899H43.1276V44.5699H42.7076ZM37.3744 44.5699H36.9544V44.9899H37.3744V44.5699ZM37.3744 28.8738H37.7944V28.8633L37.7939 28.8528L37.3744 28.8738ZM36.5072 25.3183L36.1624 25.5582L36.1685 25.5668L36.1749 25.5751L36.5072 25.3183ZM33.1252 24.191L33.1455 23.7715L33.1354 23.771H33.1252V24.191ZM25.017 24.191L25.017 23.7709L25.0098 23.7711L25.017 24.191ZM21.6783 24.9281L21.9472 25.2508L21.9489 25.2494L21.6783 24.9281ZM20.8979 44.5699V44.9899H21.3179V44.5699H20.8979ZM15.9413 44.5699V24.191H15.1013V44.5699H15.9413ZM15.9413 24.191C15.9413 22.212 16.2924 21.0025 16.8649 20.4061L16.2589 19.8243C15.444 20.6733 15.1013 22.1809 15.1013 24.191H15.9413ZM16.8589 20.4122C17.1472 20.1239 17.6092 19.8798 18.2898 19.7097C18.9678 19.5402 19.8341 19.4512 20.8979 19.4512V18.6112C19.7936 18.6112 18.8533 18.7029 18.086 18.8948C17.3213 19.086 16.6993 19.3839 16.2649 19.8182L16.8589 20.4122ZM20.8979 19.4512H37.3744V18.6112H20.8979V19.4512ZM37.3412 19.4499C38.2017 19.5182 38.8085 19.7399 39.2103 20.0709C39.6019 20.3933 39.8415 20.8544 39.9049 21.5003L40.7408 21.4184C40.6596 20.5901 40.3356 19.9094 39.7443 19.4224C39.1634 18.944 38.3682 18.6888 37.4076 18.6125L37.3412 19.4499ZM40.7386 21.4C40.672 20.9332 40.8074 20.5086 41.1924 20.0995L40.5807 19.5238C40.0407 20.0976 39.8003 20.7714 39.9071 21.5187L40.7386 21.4ZM41.1835 20.1087C41.5546 19.7376 42.3075 19.4795 43.5841 19.4511L43.5655 18.6113C42.2406 18.6408 41.2012 18.903 40.5895 19.5147L41.1835 20.1087ZM43.5748 19.4512H59.0975V18.6112H43.5748V19.4512ZM59.0975 19.4512C60.1934 19.4512 61.0822 19.5298 61.7722 19.6801C62.4682 19.8317 62.924 20.0482 63.193 20.2947L63.7606 19.6755C63.3357 19.2861 62.7149 19.0257 61.951 18.8593C61.1813 18.6917 60.2273 18.6112 59.0975 18.6112V19.4512ZM63.1993 20.3004C63.473 20.5413 63.7134 20.9603 63.883 21.6184C64.0517 22.2727 64.1407 23.1267 64.1407 24.191H64.9807C64.9807 23.0873 64.8891 22.1564 64.6965 21.4087C64.5047 20.6648 64.2032 20.0649 63.7542 19.6698L63.1993 20.3004ZM64.1407 24.191V44.5699H64.9807V24.191H64.1407ZM64.5607 44.1499H58.9674V44.9899H64.5607V44.1499ZM59.3874 44.5699V28.8738H58.5474V44.5699H59.3874ZM59.3873 28.8674C59.3726 27.897 59.2918 27.0799 59.1377 26.4254C58.9854 25.7779 58.7515 25.2456 58.3972 24.8913L57.8032 25.4852C57.9981 25.6801 58.1833 26.0367 58.3201 26.6178C58.4551 27.1917 58.5332 27.9428 58.5474 28.8802L59.3873 28.8674ZM58.4124 24.9073C57.7761 24.2003 56.6473 23.86 55.1769 23.7717L55.1266 24.6102C56.5469 24.6955 57.3837 25.0199 57.788 25.4692L58.4124 24.9073ZM55.1518 23.771H46.6533V24.611H55.1518V23.771ZM46.6442 23.7711C45.2663 23.801 44.1649 24.1157 43.4224 24.7908L43.9874 25.4123C44.5167 24.9311 45.381 24.6387 46.6624 24.6109L46.6442 23.7711ZM43.4231 24.7901C43.0334 25.1427 42.77 25.6842 42.5942 26.3492C42.4168 27.0204 42.3172 27.8611 42.2878 28.8615L43.1274 28.8862C43.1558 27.9209 43.2514 27.1501 43.4063 26.5639C43.563 25.9714 43.7693 25.6096 43.9867 25.413L43.4231 24.7901ZM42.2876 28.8738V44.5699H43.1276V28.8738H42.2876ZM42.7076 44.1499H37.3744V44.9899H42.7076V44.1499ZM37.7944 44.5699V28.8738H36.9544V44.5699H37.7944ZM37.7939 28.8528C37.7069 27.1121 37.417 25.8088 36.8396 25.0615L36.1749 25.5751C36.5803 26.0998 36.8685 27.1667 36.9549 28.8948L37.7939 28.8528ZM36.852 25.0785C36.5499 24.6442 36.0588 24.3431 35.4477 24.1394C34.8342 23.9349 34.0625 23.8159 33.1455 23.7715L33.1049 24.6105C33.9801 24.6528 34.6682 24.765 35.182 24.9363C35.6983 25.1084 36.0021 25.3276 36.1624 25.5582L36.852 25.0785ZM33.1252 23.771H25.017V24.611H33.1252V23.771ZM25.0098 23.7711C24.1552 23.7858 23.4277 23.8558 22.8344 23.9868C22.2466 24.1166 21.7561 24.3135 21.4078 24.6068L21.9489 25.2494C22.1497 25.0802 22.4903 24.923 23.0154 24.8071C23.535 24.6924 24.2022 24.6251 25.0242 24.6109L25.0098 23.7711ZM21.4094 24.6054C21.0312 24.9206 20.8142 25.4846 20.681 26.1582C20.5433 26.8542 20.4779 27.763 20.4779 28.8738H21.3179C21.3179 27.7878 21.3825 26.9405 21.505 26.3212C21.6319 25.6796 21.8051 25.3692 21.9472 25.2508L21.4094 24.6054ZM20.4779 28.8738V44.5699H21.3179V28.8738H20.4779ZM20.8979 44.1499H15.5213V44.9899H20.8979V44.1499ZM74.36 26.359L73.9425 26.3126L73.9401 26.334L73.94 26.3556L74.36 26.359ZM74.2732 37.2422L73.8533 37.2388L73.853 37.2714L73.8578 37.3037L74.2732 37.2422ZM74.7936 38.8898L74.4539 39.1369L74.4596 39.1447L74.4656 39.1522L74.7936 38.8898ZM76.6147 39.3234L76.6158 38.9034H76.6147V39.3234ZM109.698 39.4101L109.719 38.9907L109.709 38.9902L109.699 38.9901L109.698 39.4101ZM111.822 39.0633L112.119 39.3602L112.127 39.3532L112.133 39.3458L111.822 39.0633ZM112.386 37.1554L112.804 37.1935L112.806 37.1761L112.806 37.1586L112.386 37.1554ZM112.473 25.7086L112.893 25.7118V25.7086H112.473ZM111.822 24.4511L111.635 24.8268L111.65 24.8346L111.666 24.8411L111.822 24.4511ZM109.134 24.1476L109.133 24.5676H109.134V24.1476ZM76.4412 24.0609L76.4423 23.6409L76.4227 23.6409L76.4032 23.6426L76.4412 24.0609ZM74.7502 24.7113L75.1189 24.9124L75.1225 24.9058L75.1259 24.8991L74.7502 24.7113ZM68.8967 23.9308L68.4766 23.9195L68.4767 23.9332L68.8967 23.9308ZM70.1107 19.9851L70.3407 20.3368L70.3498 20.3305L70.1107 19.9851ZM74.36 19.1179L74.3595 18.6978L74.3483 18.6981L74.36 19.1179ZM112.256 19.0746L112.256 18.6546L112.256 18.6546L112.256 19.0746ZM116.419 20.1152L116.156 20.4432L116.163 20.4485L116.419 20.1152ZM117.849 23.8008L118.269 23.7984L118.269 23.7894L118.269 23.7805L117.849 23.8008ZM117.936 39.1933L117.516 39.1957L117.516 39.2005L117.936 39.1933ZM116.896 43.1824L116.561 42.9288L116.56 42.9304L116.896 43.1824ZM112.473 44.5699L112.473 44.1499L112.472 44.1499L112.473 44.5699ZM74.2299 44.6566L74.2289 44.2366L74.2241 44.2367L74.2299 44.6566ZM70.024 43.7894L69.7402 44.099L69.7469 44.1052L69.7539 44.111L70.024 43.7894ZM68.9834 39.1933H69.4034L69.4034 39.1909L68.9834 39.1933ZM73.94 26.3556L73.8533 37.2388L74.6932 37.2455L74.78 26.3623L73.94 26.3556ZM73.8578 37.3037C73.9753 38.0966 74.1596 38.7322 74.4539 39.1369L75.1332 38.6428C74.965 38.4115 74.8025 37.9486 74.6887 37.1806L73.8578 37.3037ZM74.4656 39.1522C74.6679 39.4051 74.9872 39.5432 75.325 39.6236C75.6731 39.7065 76.1069 39.7434 76.6147 39.7434V38.9034C76.1396 38.9034 75.7784 38.8681 75.5195 38.8064C75.2503 38.7423 75.1505 38.6636 75.1215 38.6274L74.4656 39.1522ZM76.6136 39.7434L109.697 39.8301L109.699 38.9901L76.6158 38.9034L76.6136 39.7434ZM109.676 39.8296C110.255 39.8593 110.747 39.8458 111.142 39.7813C111.525 39.7188 111.881 39.5986 112.119 39.3602L111.525 38.7663C111.475 38.817 111.332 38.8991 111.007 38.9523C110.694 39.0033 110.268 39.0188 109.719 38.9907L109.676 39.8296ZM112.133 39.3458C112.337 39.1214 112.48 38.8157 112.583 38.4668C112.687 38.1136 112.76 37.6869 112.804 37.1935L111.968 37.1174C111.926 37.5779 111.861 37.9461 111.777 38.2288C111.693 38.5158 111.597 38.6872 111.512 38.7807L112.133 39.3458ZM112.806 37.1586L112.893 25.7118L112.053 25.7054L111.966 37.1523L112.806 37.1586ZM112.893 25.7086C112.893 24.9584 112.639 24.3254 111.978 24.0612L111.666 24.8411C111.873 24.9238 112.053 25.1291 112.053 25.7086H112.893ZM112.01 24.0755C111.739 23.9398 111.352 23.8579 110.894 23.8062C110.424 23.7531 109.836 23.7276 109.134 23.7276V24.5676C109.82 24.5676 110.373 24.5927 110.8 24.6409C111.238 24.6903 111.501 24.7602 111.635 24.8268L112.01 24.0755ZM109.135 23.7276L76.4423 23.6409L76.4401 24.4809L109.133 24.5676L109.135 23.7276ZM76.4032 23.6426C75.9074 23.6877 75.485 23.7686 75.1523 23.8965C74.825 24.0224 74.5283 24.216 74.3745 24.5235L75.1259 24.8991C75.1455 24.8597 75.2174 24.7715 75.4538 24.6806C75.6847 24.5917 76.0211 24.5208 76.4792 24.4792L76.4032 23.6426ZM74.3815 24.5102C74.1658 24.9057 74.0299 25.5265 73.9425 26.3126L74.7774 26.4053C74.8635 25.6305 74.9878 25.1529 75.1189 24.9124L74.3815 24.5102ZM69.3165 23.9422C69.3449 22.8921 69.4582 22.0706 69.645 21.4636C69.8331 20.8521 70.0806 20.5066 70.3406 20.3367L69.8809 19.6336C69.3893 19.955 69.0587 20.5129 68.8421 21.2166C68.6242 21.9249 68.5063 22.8305 68.4768 23.9195L69.3165 23.9422ZM70.3498 20.3305C70.6597 20.1159 71.1394 19.9287 71.8207 19.7896C72.4972 19.6516 73.3457 19.5663 74.3716 19.5378L74.3483 18.6981C73.293 18.7274 72.3926 18.8156 71.6527 18.9666C70.9176 19.1166 70.3134 19.334 69.8717 19.6398L70.3498 20.3305ZM74.3604 19.5379L112.257 19.4946L112.256 18.6546L74.3595 18.6979L74.3604 19.5379ZM112.256 19.4946C114.13 19.4946 115.401 19.8387 116.156 20.4432L116.681 19.7872C115.702 19.0042 114.197 18.6546 112.256 18.6546V19.4946ZM116.163 20.4485C116.884 21.0013 117.345 22.0748 117.43 23.8211L118.269 23.7805C118.18 21.9423 117.688 20.5589 116.674 19.7819L116.163 20.4485ZM117.429 23.8031L117.516 39.1957L118.356 39.191L118.269 23.7984L117.429 23.8031ZM117.516 39.2005C117.544 40.8509 117.207 42.0759 116.561 42.9288L117.23 43.436C118.029 42.3811 118.386 40.9467 118.356 39.1862L117.516 39.2005ZM116.56 42.9304C115.995 43.6828 114.711 44.1499 112.473 44.1499V44.9899C114.744 44.9899 116.408 44.532 117.232 43.4344L116.56 42.9304ZM112.472 44.1499L74.2289 44.2366L74.2308 45.0766L112.474 44.9899L112.472 44.1499ZM74.2241 44.2367C73.2015 44.2509 72.3634 44.1865 71.7023 44.0502C71.0372 43.913 70.5815 43.7092 70.2942 43.4678L69.7539 44.111C70.1892 44.4767 70.7958 44.7209 71.5327 44.8728C72.2736 45.0256 73.1771 45.0913 74.2357 45.0766L74.2241 44.2367ZM70.3078 43.4798C70.0536 43.2468 69.8191 42.8036 69.6532 42.0707C69.4893 41.3469 69.4034 40.3911 69.4034 39.1933H68.5634C68.5634 40.4237 68.6509 41.448 68.8339 42.2562C69.0149 43.0553 69.3007 43.6962 69.7402 44.099L70.3078 43.4798ZM69.4034 39.1909L69.3167 23.9284L68.4767 23.9332L68.5634 39.1957L69.4034 39.1909ZM122.315 18.9879V18.5679H121.895V18.9879H122.315ZM171.355 18.9879H171.775V18.5679H171.355V18.9879ZM171.355 24.0176V24.4376H171.775V24.0176H171.355ZM149.502 24.0176V23.5976H149.082V24.0176H149.502ZM149.502 44.5265V44.9465H149.922V44.5265H149.502ZM144.169 44.5265H143.749V44.9465H144.169V44.5265ZM144.169 24.0176H144.589V23.5976H144.169V24.0176ZM122.315 24.0176H121.895V24.4376H122.315V24.0176ZM122.315 19.4079H171.355V18.5679H122.315V19.4079ZM170.935 18.9879V24.0176H171.775V18.9879H170.935ZM171.355 23.5976H149.502V24.4376H171.355V23.5976ZM149.082 24.0176V44.5265H149.922V24.0176H149.082ZM149.502 44.1065H144.169V44.9465H149.502V44.1065ZM144.589 44.5265V24.0176H143.749V44.5265H144.589ZM144.169 23.5976H122.315V24.4376H144.169V23.5976ZM122.735 24.0176V18.9879H121.895V24.0176H122.735ZM175.691 18.9879V18.5679H175.271V18.9879H175.691ZM181.067 18.9879H181.487V18.5679H181.067V18.9879ZM181.067 29.0906H180.647V29.5106H181.067V29.0906ZM219.137 29.0906V29.5106H219.557V29.0906H219.137ZM219.137 18.9879V18.5679H218.717V18.9879H219.137ZM224.73 18.9879H225.15V18.5679H224.73V18.9879ZM224.73 44.5265V44.9465H225.15V44.5265H224.73ZM219.137 44.5265H218.717V44.9465H219.137V44.5265ZM219.137 34.684H219.557V34.264H219.137V34.684ZM181.067 34.684V34.264H180.647V34.684H181.067ZM181.067 44.5265V44.9465H181.487V44.5265H181.067ZM175.691 44.5265H175.271V44.9465H175.691V44.5265ZM175.691 19.4079H181.067V18.5679H175.691V19.4079ZM180.647 18.9879V29.0906H181.487V18.9879H180.647ZM181.067 29.5106H219.137V28.6706H181.067V29.5106ZM219.557 29.0906V18.9879H218.717V29.0906H219.557ZM219.137 19.4079H224.73V18.5679H219.137V19.4079ZM224.31 18.9879V44.5265H225.15V18.9879H224.31ZM224.73 44.1065H219.137V44.9465H224.73V44.1065ZM219.557 44.5265V34.684H218.717V44.5265H219.557ZM219.137 34.264H181.067V35.104H219.137V34.264ZM180.647 34.684V44.5265H181.487V34.684H180.647ZM181.067 44.1065H175.691V44.9465H181.067V44.1065ZM176.111 44.5265V18.9879H175.271V44.5265H176.111Z" fill="white"/>
</g>
<defs>
<clipPath id="clip0">
<rect width="240" height="60" fill="white" transform="translate(0.5 0.990967)"/>
</clipPath>
</defs>
</svg>
